<svg xmlns="http://www.w3.org/2000/svg" viewBox="0 0 64 64" xml:space="preserve" style="fill-rule:evenodd;clip-rule:evenodd;stroke-linecap:round;stroke-linejoin:round;stroke-miterlimit:2"><path d="M56 23a2 2 0 0 0-2-2H10a2 2 0 0 0-2 2v3a2 2 0 0 0 2 2h44a2 2 0 0 0 2-2v-3zM27 49H10a2 2 0 0 0-2 2v1a2 2 0 0 0 2 2h19M45.5 54H54a2 2 0 0 0 2-2v-1a2 2 0 0 0-2-2h-6M50.5 21 33.26 7.021a2.002 2.002 0 0 0-2.52 0L13.5 21" style="fill:none;stroke:#222a33;stroke-width:2px"/><path d="m39.4 16.5-6.14-4.979a2.002 2.002 0 0 0-2.52 0l-.74.601M48 41a3 3 0 0 0-3-3H35a3 3 0 0 0-3 3v7.051a7.5 7.5 0 0 0 4.425 6.841L40 56.5l3.575-1.608A7.5 7.5 0 0 0 48 48.051V41z" style="fill:none;stroke:#222a33;stroke-width:2px"/><path d="m36.75 46.748 2.5 2 4-3.5M12 28v21M17 32v17M24 32v17M41 32v6M48 32v10M26 28H15v2.145c0 1.024.831 1.855 1.855 1.855h7.29A1.856 1.856 0 0 0 26 30.145V28zM49 28H39v2.145c0 1.024.831 1.855 1.855 1.855h6.29A1.856 1.856 0 0 0 49 30.145V28zM52 49V28" style="fill:none;stroke:#222a33;stroke-width:2px"/></svg>