<svg xmlns="http://www.w3.org/2000/svg" viewBox="0 0 88 88"><path d="M73.999 58V46a8.926 8.926 0 0 0-1.23-4.53l-6.25 6.25a7.003 7.003 0 0 1 1.48 4.28v6zM67.999 79h3a3.009 3.009 0 0 0 3-3v-2h-6z" style="fill:#202021"/><path d="M76.999 60h-20a6.005 6.005 0 0 0-6 6 6.009 6.009 0 0 0 6 6h20a5.002 5.002 0 0 0 5-5V55a4.985 4.985 0 0 1-5 5zm-20 8a2 2 0 1 1 2-2 2.006 2.006 0 0 1-2 2z" style="fill:#202021"/><path d="M75.999 58a4 4 0 1 0 0-8zM34.999 1h-19a1.003 1.003 0 0 0-1 1v40.76l20-20zm-8 12a4 4 0 1 1-7.46-2 4 4 0 1 1 6.92 0 3.971 3.971 0 0 1 .54 2z" style="fill:#202021"/><path d="M23.59 12.953c-.038.005-.077.007-.115.01-.093.012-.188.017-.283.022a4.567 4.567 0 0 1-2.133-.485 2.074 2.074 0 0 0-.06.5 2 2 0 1 0 4 0 2.074 2.074 0 0 0-.06-.5 3.658 3.658 0 0 1-1.35.453zM22.999 7a2.006 2.006 0 0 0-2 2 2 2 0 0 0 4 0 2.006 2.006 0 0 0-2-2zM40.999 1h-4v19.76l4-4V1zM48.999 2a1.003 1.003 0 0 0-1-1h-5v13.76l6-6z" style="fill:#202021"/><circle cx="56.999" cy="29" r="1" style="fill:#202021"/><path d="m21.245 45 31.507-31.507a1 1 0 0 1 1.41-.004 4.12 4.12 0 0 0 5.673 0 1 1 0 0 1 1.41.004l11.26 11.26a1 1 0 0 1 .004 1.41 4.022 4.022 0 0 0 0 5.674 1 1 0 0 1-.004 1.41L60.753 45h.246a6.898 6.898 0 0 1 1.97.28 7.005 7.005 0 0 1 2.12 1.05l16.62-16.62a1.008 1.008 0 0 0 0-1.42l-24-24a1.008 1.008 0 0 0-1.42 0L15.579 45z" style="fill:#202021"/><path d="M60.478 15.553a6.15 6.15 0 0 1-6.959 0L24.073 45h33.852l12.52-12.521a6.022 6.022 0 0 1 0-6.958zm-7.772 27.154a1 1 0 0 1-1.414 0l-.814-.814a2.394 2.394 0 0 1-3.186-.186 1 1 0 0 1 1.414-1.414.414.414 0 0 0 .586 0l1-1a.414.414 0 0 0 0-.585l-.28-.28a.414.414 0 0 0-.478-.078l-2.176 1.088a2.411 2.411 0 0 1-2.787-.451l-.28-.28a2.392 2.392 0 0 1-.186-3.188l-.813-.812a1 1 0 1 1 1.414-1.414l.814.813a2.41 2.41 0 0 1 3.186.186 1 1 0 0 1-1.414 1.415.414.414 0 0 0-.586 0l-1 1a.414.414 0 0 0 0 .585l.28.28a.413.413 0 0 0 .478.077l2.175-1.088a2.413 2.413 0 0 1 2.787.452l.28.28a2.392 2.392 0 0 1 .187 3.187l.813.813a1 1 0 0 1 0 1.414zM56.999 32a3 3 0 1 1 3-3 3.003 3.003 0 0 1-3 3z" style="fill:#202021"/><path d="M48.999 66a8.01 8.01 0 0 1 8-8h9v-6a4.988 4.988 0 0 0-5-5h-50a5.002 5.002 0 0 1-5-5v40a5.002 5.002 0 0 0 5 5h50a5.002 5.002 0 0 0 5-5v-8h-9a8.01 8.01 0 0 1-8-8zm14-14h1v2h-1a1 1 0 0 1 0-2zm-54 30a2.772 2.772 0 0 1-1-.18V79a1.003 1.003 0 0 0 1 1 1 1 0 1 1 0 2zm0-28a2.772 2.772 0 0 1-1-.18V51a1.003 1.003 0 0 0 1 1 1 1 0 1 1 0 2zm54 26h1v2h-1a1 1 0 0 1 0-2zm-7-28h2a1 1 0 0 1 0 2h-2a1 1 0 0 1 0-2zm-7 0h2a1 1 0 0 1 0 2h-2a1 1 0 0 1 0-2zm-33 30h-2a1 1 0 0 1 0-2h2a1 1 0 1 1 0 2zm0-28h-2a1 1 0 0 1 0-2h2a1 1 0 1 1 0 2zm7 28h-2a1 1 0 0 1 0-2h2a1 1 0 1 1 0 2zm0-28h-2a1 1 0 0 1 0-2h2a1 1 0 1 1 0 2zm7 28h-2a1 1 0 0 1 0-2h2a1 1 0 1 1 0 2zm0-28h-2a1 1 0 0 1 0-2h2a1 1 0 1 1 0 2zm7 28h-2a1 1 0 0 1 0-2h2a1 1 0 0 1 0 2zm0-28h-2a1 1 0 0 1 0-2h2a1 1 0 0 1 0 2zm7 28h-2a1 1 0 0 1 0-2h2a1 1 0 0 1 0 2zm0-28h-2a1 1 0 0 1 0-2h2a1 1 0 0 1 0 2zm7 28h-2a1 1 0 0 1 0-2h2a1 1 0 1 1 0 2zm8-1a1 1 0 0 1-1 1h-2a1 1 0 0 1 0-2h2a1 1 0 0 1 1 1z" style="fill:#202021"/><path d="M11.999 45h1v-8h-1a4 4 0 1 0 0 8z" style="fill:#202021"/></svg>